<mxfile host="app.diagrams.net" modified="2023-01-29T12:39:06.806Z" agent="5.0 (Windows NT 10.0; Win64; x64) AppleWebKit/537.36 (KHTML, like Gecko) Chrome/109.0.0.0 Safari/537.36" etag="HU1H2s39_JxRW6log2uM" version="20.8.13" type="github">
  <diagram name="Trang-1" id="RvJSVvao-R1DcUZAAfwQ">
    <mxGraphModel dx="1050" dy="619" grid="1" gridSize="10" guides="1" tooltips="1" connect="1" arrows="1" fold="1" page="1" pageScale="1" pageWidth="827" pageHeight="1169" math="0" shadow="0">
      <root>
        <mxCell id="0" />
        <mxCell id="1" parent="0" />
        <mxCell id="Z7lbBQxiNyeNGlmgI0DX-1" value="Development" style="rounded=0;whiteSpace=wrap;html=1;fillColor=#99FFFF;fontSize=15;" vertex="1" parent="1">
          <mxGeometry x="90" y="90" width="120" height="60" as="geometry" />
        </mxCell>
        <mxCell id="Z7lbBQxiNyeNGlmgI0DX-2" value="UI Website/App" style="whiteSpace=wrap;html=1;aspect=fixed;labelBackgroundColor=default;fillColor=#FFD966;fontSize=15;" vertex="1" parent="1">
          <mxGeometry x="90" y="180" width="150" height="150" as="geometry" />
        </mxCell>
        <mxCell id="Z7lbBQxiNyeNGlmgI0DX-3" value="Nginx" style="rounded=0;whiteSpace=wrap;html=1;fontSize=15;" vertex="1" parent="1">
          <mxGeometry x="290" y="200" width="120" height="40" as="geometry" />
        </mxCell>
        <mxCell id="Z7lbBQxiNyeNGlmgI0DX-4" value="React Server" style="rounded=0;whiteSpace=wrap;html=1;fontSize=15;" vertex="1" parent="1">
          <mxGeometry x="530" y="120" width="120" height="40" as="geometry" />
        </mxCell>
        <mxCell id="Z7lbBQxiNyeNGlmgI0DX-5" value="Express Server" style="rounded=0;whiteSpace=wrap;html=1;fontSize=15;" vertex="1" parent="1">
          <mxGeometry x="530" y="200" width="120" height="40" as="geometry" />
        </mxCell>
        <mxCell id="Z7lbBQxiNyeNGlmgI0DX-6" value="PostgreSQL" style="rounded=0;whiteSpace=wrap;html=1;fontSize=15;" vertex="1" parent="1">
          <mxGeometry x="530" y="280" width="120" height="40" as="geometry" />
        </mxCell>
        <mxCell id="Z7lbBQxiNyeNGlmgI0DX-7" value="" style="endArrow=classic;html=1;rounded=0;exitX=1;exitY=0.5;exitDx=0;exitDy=0;entryX=0;entryY=0.5;entryDx=0;entryDy=0;fontSize=15;" edge="1" parent="1" source="Z7lbBQxiNyeNGlmgI0DX-3" target="Z7lbBQxiNyeNGlmgI0DX-5">
          <mxGeometry width="50" height="50" relative="1" as="geometry">
            <mxPoint x="390" y="350" as="sourcePoint" />
            <mxPoint x="500" y="130" as="targetPoint" />
          </mxGeometry>
        </mxCell>
        <mxCell id="Z7lbBQxiNyeNGlmgI0DX-8" value="" style="endArrow=classic;html=1;rounded=0;entryX=0;entryY=0.5;entryDx=0;entryDy=0;fontSize=15;" edge="1" parent="1" target="Z7lbBQxiNyeNGlmgI0DX-4">
          <mxGeometry width="50" height="50" relative="1" as="geometry">
            <mxPoint x="450" y="220" as="sourcePoint" />
            <mxPoint x="440" y="300" as="targetPoint" />
            <Array as="points">
              <mxPoint x="450" y="140" />
            </Array>
          </mxGeometry>
        </mxCell>
        <mxCell id="Z7lbBQxiNyeNGlmgI0DX-10" value="" style="endArrow=classic;html=1;rounded=0;exitX=0.5;exitY=1;exitDx=0;exitDy=0;entryX=0.5;entryY=0;entryDx=0;entryDy=0;fontSize=15;" edge="1" parent="1" source="Z7lbBQxiNyeNGlmgI0DX-5" target="Z7lbBQxiNyeNGlmgI0DX-6">
          <mxGeometry width="50" height="50" relative="1" as="geometry">
            <mxPoint x="570" y="170" as="sourcePoint" />
            <mxPoint x="570" y="210" as="targetPoint" />
          </mxGeometry>
        </mxCell>
        <mxCell id="Z7lbBQxiNyeNGlmgI0DX-13" value="" style="endArrow=classic;html=1;rounded=0;exitX=1;exitY=0.25;exitDx=0;exitDy=0;fontSize=15;" edge="1" parent="1" source="Z7lbBQxiNyeNGlmgI0DX-2">
          <mxGeometry width="50" height="50" relative="1" as="geometry">
            <mxPoint x="390" y="350" as="sourcePoint" />
            <mxPoint x="290" y="218" as="targetPoint" />
          </mxGeometry>
        </mxCell>
        <mxCell id="Z7lbBQxiNyeNGlmgI0DX-14" value="Production" style="rounded=0;whiteSpace=wrap;html=1;fillColor=#99FFFF;fontSize=15;" vertex="1" parent="1">
          <mxGeometry x="90" y="380" width="120" height="60" as="geometry" />
        </mxCell>
        <mxCell id="Z7lbBQxiNyeNGlmgI0DX-15" value="UI Website/App" style="whiteSpace=wrap;html=1;aspect=fixed;labelBackgroundColor=default;fillColor=#FFD966;fontSize=15;" vertex="1" parent="1">
          <mxGeometry x="90" y="470" width="150" height="150" as="geometry" />
        </mxCell>
        <mxCell id="Z7lbBQxiNyeNGlmgI0DX-16" value="Nginx Routing" style="rounded=0;whiteSpace=wrap;html=1;fontSize=15;" vertex="1" parent="1">
          <mxGeometry x="280" y="520" width="120" height="40" as="geometry" />
        </mxCell>
        <mxCell id="Z7lbBQxiNyeNGlmgI0DX-17" value="Nginx with build React files" style="rounded=0;whiteSpace=wrap;html=1;fontSize=15;" vertex="1" parent="1">
          <mxGeometry x="530" y="430" width="120" height="40" as="geometry" />
        </mxCell>
        <mxCell id="Z7lbBQxiNyeNGlmgI0DX-20" value="PostgreSQL" style="rounded=0;whiteSpace=wrap;html=1;fontSize=15;" vertex="1" parent="1">
          <mxGeometry x="530" y="580" width="120" height="40" as="geometry" />
        </mxCell>
        <mxCell id="Z7lbBQxiNyeNGlmgI0DX-21" value="" style="endArrow=classic;html=1;rounded=0;exitX=1;exitY=0.5;exitDx=0;exitDy=0;entryX=0;entryY=0.75;entryDx=0;entryDy=0;fontSize=15;" edge="1" parent="1" source="Z7lbBQxiNyeNGlmgI0DX-16" target="Z7lbBQxiNyeNGlmgI0DX-22">
          <mxGeometry width="50" height="50" relative="1" as="geometry">
            <mxPoint x="390" y="350" as="sourcePoint" />
            <mxPoint x="500" y="540" as="targetPoint" />
          </mxGeometry>
        </mxCell>
        <mxCell id="Z7lbBQxiNyeNGlmgI0DX-22" value="Express Server" style="rounded=0;whiteSpace=wrap;html=1;fontSize=15;" vertex="1" parent="1">
          <mxGeometry x="530" y="510" width="120" height="40" as="geometry" />
        </mxCell>
        <mxCell id="Z7lbBQxiNyeNGlmgI0DX-23" value="" style="endArrow=classic;html=1;rounded=0;entryX=0;entryY=0.5;entryDx=0;entryDy=0;fontSize=15;" edge="1" parent="1" target="Z7lbBQxiNyeNGlmgI0DX-17">
          <mxGeometry width="50" height="50" relative="1" as="geometry">
            <mxPoint x="440" y="540" as="sourcePoint" />
            <mxPoint x="440" y="300" as="targetPoint" />
            <Array as="points">
              <mxPoint x="440" y="450" />
            </Array>
          </mxGeometry>
        </mxCell>
        <mxCell id="Z7lbBQxiNyeNGlmgI0DX-24" value="Port: 3000" style="text;strokeColor=none;align=center;fillColor=none;html=1;verticalAlign=middle;whiteSpace=wrap;rounded=0;fontSize=15;" vertex="1" parent="1">
          <mxGeometry x="430" y="420" width="100" height="30" as="geometry" />
        </mxCell>
        <mxCell id="Z7lbBQxiNyeNGlmgI0DX-26" value="Port: 5000" style="text;strokeColor=none;align=center;fillColor=none;html=1;verticalAlign=middle;whiteSpace=wrap;rounded=0;fontSize=15;" vertex="1" parent="1">
          <mxGeometry x="430" y="510" width="100" height="30" as="geometry" />
        </mxCell>
        <mxCell id="Z7lbBQxiNyeNGlmgI0DX-27" value="" style="endArrow=classic;html=1;rounded=0;fontSize=15;entryX=0;entryY=0.75;entryDx=0;entryDy=0;" edge="1" parent="1" target="Z7lbBQxiNyeNGlmgI0DX-16">
          <mxGeometry width="50" height="50" relative="1" as="geometry">
            <mxPoint x="240" y="550" as="sourcePoint" />
            <mxPoint x="300" y="240" as="targetPoint" />
          </mxGeometry>
        </mxCell>
        <mxCell id="Z7lbBQxiNyeNGlmgI0DX-28" value="Port: 80" style="text;strokeColor=none;align=center;fillColor=none;html=1;verticalAlign=middle;whiteSpace=wrap;rounded=0;fontSize=15;" vertex="1" parent="1">
          <mxGeometry x="240" y="490" width="100" height="30" as="geometry" />
        </mxCell>
      </root>
    </mxGraphModel>
  </diagram>
</mxfile>
